<svg xmlns="http://www.w3.org/2000/svg" width="103.181" height="1052.248" viewBox="0 0 103.181 1052.248"><g transform="translate(-1432.652 -734.824)"><path d="M0,0S229.324,397.143,0,397.143Z" transform="translate(1433.911 1389.928)" fill="#3e00bc"/><path d="M0,0S206.857,358.235,0,358.235Z" transform="translate(1434.466 1394.382)" fill="#4606c9"/><path d="M-1.259-175.209S7.174-45.844,42.011,93.838,117.552,323.651,0,323.651Z" transform="translate(1433.911 1389.928)" fill="#4c07d8"/><g transform="translate(1432.652 734.824)"><path d="M0,397.143S229.324,0,0,0Z" transform="translate(1.259 0)" fill="#3e00bc"/><path d="M0,358.235S206.857,0,0,0Z" transform="translate(1.814 34.454)" fill="#4606c9"/><path d="M-1.259,323.651S7.174,194.286,42.011,54.6,117.552-175.209,0-175.209Z" transform="translate(1.259 248.701)" fill="#4c07d8"/></g></g></svg>