<svg xmlns="http://www.w3.org/2000/svg" xmlns:xlink="http://www.w3.org/1999/xlink" width="145" height="93" viewBox="0 0 145 93"><defs><clipPath id="a"><rect width="145" height="93" fill="none"/></clipPath></defs><g clip-path="url(#a)"><g transform="translate(-293 -56)"><rect width="13" height="11" transform="translate(293 56)" fill="rgba(219,167,255,0.99)"/></g><g transform="translate(-263 -56)"><rect width="13" height="11" transform="translate(293 56)" fill="rgba(219,167,255,0.99)"/></g><g transform="translate(-233 -56)"><rect width="13" height="11" transform="translate(293 56)" fill="rgba(219,167,255,0.99)"/></g><g transform="translate(-203 -56)"><rect width="13" height="11" transform="translate(293 56)" fill="rgba(219,167,255,0.99)"/></g><g transform="translate(-173 -56)"><rect width="13" height="11" transform="translate(293 56)" fill="rgba(219,167,255,0.99)"/></g><g transform="translate(-293 -30)"><rect width="13" height="11" transform="translate(293 56)" fill="rgba(219,167,255,0.99)"/></g><g transform="translate(-263 -30)"><rect width="13" height="11" transform="translate(293 56)" fill="rgba(219,167,255,0.99)"/></g><g transform="translate(-233 -30)"><rect width="13" height="11" transform="translate(293 56)" fill="rgba(219,167,255,0.99)"/></g><g transform="translate(-203 -30)"><rect width="13" height="11" transform="translate(293 56)" fill="rgba(219,167,255,0.99)"/></g><g transform="translate(-173 -30)"><rect width="13" height="11" transform="translate(293 56)" fill="rgba(219,167,255,0.99)"/></g><g transform="translate(-293 -4)"><rect width="13" height="11" transform="translate(293 56)" fill="rgba(219,167,255,0.99)"/></g><g transform="translate(-263 -4)"><rect width="13" height="11" transform="translate(293 56)" fill="rgba(219,167,255,0.99)"/></g><g transform="translate(-233 -4)"><rect width="13" height="11" transform="translate(293 56)" fill="rgba(219,167,255,0.99)"/></g><g transform="translate(-203 -4)"><rect width="13" height="11" transform="translate(293 56)" fill="rgba(219,167,255,0.99)"/></g><g transform="translate(-173 -4)"><rect width="13" height="11" transform="translate(293 56)" fill="rgba(219,167,255,0.99)"/></g><g transform="translate(-293 22)"><rect width="13" height="11" transform="translate(293 56)" fill="rgba(219,167,255,0.99)"/></g><g transform="translate(-263 22)"><rect width="13" height="11" transform="translate(293 56)" fill="rgba(219,167,255,0.99)"/></g><g transform="translate(-233 22)"><rect width="13" height="11" transform="translate(293 56)" fill="rgba(219,167,255,0.99)"/></g><g transform="translate(-203 22)"><rect width="13" height="11" transform="translate(293 56)" fill="rgba(219,167,255,0.99)"/></g><g transform="translate(-173 22)"><rect width="13" height="11" transform="translate(293 56)" fill="rgba(219,167,255,0.99)"/></g></g></svg>