<svg xmlns="http://www.w3.org/2000/svg" xmlns:xlink="http://www.w3.org/1999/xlink" width="119" height="90" viewBox="0 0 119 90"><defs><clipPath id="a"><rect width="119" height="90" fill="none"/></clipPath></defs><g opacity="0.19" clip-path="url(#a)"><g transform="translate(-293 -56)"><rect width="22" height="22" transform="translate(294 53)" fill="rgba(67,67,67,0.86)"/></g><g transform="translate(-263 -56)"><rect width="22" height="22" transform="translate(294 53)" fill="rgba(67,67,67,0.86)"/></g><g transform="translate(-233 -56)"><rect width="22" height="22" transform="translate(294 53)" fill="rgba(67,67,67,0.86)"/></g><g transform="translate(-203 -56)"><rect width="22" height="22" transform="translate(294 53)" fill="rgba(67,67,67,0.86)"/></g><g transform="translate(-293 -26)"><rect width="22" height="22" transform="translate(294 53)" fill="rgba(67,67,67,0.86)"/></g><g transform="translate(-263 -26)"><rect width="22" height="22" transform="translate(294 53)" fill="rgba(67,67,67,0.86)"/></g><g transform="translate(-233 -26)"><rect width="22" height="22" transform="translate(294 53)" fill="rgba(67,67,67,0.86)"/></g><g transform="translate(-203 -26)"><rect width="22" height="22" transform="translate(294 53)" fill="rgba(67,67,67,0.86)"/></g><g transform="translate(-293 4)"><rect width="22" height="22" transform="translate(294 53)" fill="rgba(67,67,67,0.86)"/></g><g transform="translate(-263 4)"><rect width="22" height="22" transform="translate(294 53)" fill="rgba(67,67,67,0.86)"/></g><g transform="translate(-233 4)"><rect width="22" height="22" transform="translate(294 53)" fill="rgba(67,67,67,0.86)"/></g><g transform="translate(-203 4)"><rect width="22" height="22" transform="translate(294 53)" fill="rgba(67,67,67,0.86)"/></g></g></svg>