<svg xmlns="http://www.w3.org/2000/svg" width="1725.793" height="1158" viewBox="0 0 1725.793 1158"><g transform="translate(-181.207 -139)"><circle cx="251" cy="251" r="251" transform="translate(1397 519)" fill="#fff"/><path d="M251,4a248.848,248.848,0,0,0-49.783,5.018A245.627,245.627,0,0,0,112.9,46.181,247.732,247.732,0,0,0,23.409,154.858,245.726,245.726,0,0,0,9.018,201.217a249.449,249.449,0,0,0,0,99.567A245.627,245.627,0,0,0,46.181,389.1a247.732,247.732,0,0,0,108.676,89.494,245.726,245.726,0,0,0,46.359,14.391,249.449,249.449,0,0,0,99.567,0A245.627,245.627,0,0,0,389.1,455.819a247.732,247.732,0,0,0,89.494-108.676,245.726,245.726,0,0,0,14.391-46.359,249.449,249.449,0,0,0,0-99.567A245.627,245.627,0,0,0,455.819,112.9,247.732,247.732,0,0,0,347.142,23.409,245.726,245.726,0,0,0,300.783,9.018,248.848,248.848,0,0,0,251,4m0-4C389.623,0,502,112.377,502,251S389.623,502,251,502,0,389.623,0,251,112.377,0,251,0Z" transform="translate(1397 519)" fill="#70f"/><circle cx="240" cy="240" r="240" transform="translate(1427 587)" fill="#fff"/><path d="M240,13C114.832,13,13,114.832,13,240S114.832,467,240,467,467,365.168,467,240,365.168,13,240,13m0-13C372.548,0,480,107.452,480,240S372.548,480,240,480,0,372.548,0,240,107.452,0,240,0Z" transform="translate(1427 587)" fill="#70f"/><path d="M50.25,0l-6.2,22.91L67,29,44.052,35.09,50.25,58,33.5,41.18,16.75,58l6.2-22.91L0,29l22.948-6.09L16.75,0,33.5,16.82Z" transform="translate(248.5 413)" fill="#fff"/><path d="M40.507,16.87,33.5,23.906,26.493,16.87l2.593,9.584L19.492,29l9.593,2.546L26.493,41.13,33.5,34.094l7.007,7.036-2.593-9.584L47.508,29l-9.593-2.546,2.593-9.584M16.75,0,33.5,16.82,50.25,0l-6.2,22.91L67,29,44.052,35.09,50.25,58,33.5,41.18,16.75,58l6.2-22.91L0,29l22.948-6.09Z" transform="translate(248.5 413)" fill="#70f"/><path d="M50.25,0l-6.2,22.91L67,29,44.052,35.09,50.25,58,33.5,41.18,16.75,58l6.2-22.91L0,29l22.948-6.09L16.75,0,33.5,16.82Z" transform="translate(329.5 579)" fill="#fff"/><path d="M40.507,16.87,33.5,23.906,26.493,16.87l2.593,9.584L19.492,29l9.593,2.546L26.493,41.13,33.5,34.094l7.007,7.036-2.593-9.584L47.508,29l-9.593-2.546,2.593-9.584M16.75,0,33.5,16.82,50.25,0l-6.2,22.91L67,29,44.052,35.09,50.25,58,33.5,41.18,16.75,58l6.2-22.91L0,29l22.948-6.09Z" transform="translate(329.5 579)" fill="#70f"/><path d="M31.19,0,27.343,14.22,41.586,18,27.343,21.78,31.19,36l-10.4-10.44L10.4,36l3.847-14.22L0,18l14.243-3.78L10.4,0l10.4,10.44Z" transform="translate(308.707 515)" fill="#fff"/><path d="M27.292,6.748l-6.5,6.526-6.5-6.526,2.4,8.89L7.8,18l8.9,2.362-2.4,8.89,6.5-6.526,6.5,6.526-2.4-8.89L33.789,18l-8.9-2.362,2.4-8.89M10.4,0l10.4,10.44L31.19,0,27.343,14.22,41.586,18,27.343,21.78,31.19,36l-10.4-10.44L10.4,36l3.847-14.22L0,18l14.243-3.78Z" transform="translate(308.707 515)" fill="#70f"/><path d="M31.19,0,27.343,14.22,41.586,18,27.343,21.78,31.19,36l-10.4-10.44L10.4,36l3.847-14.22L0,18l14.243-3.78L10.4,0l10.4,10.44Z" transform="translate(220.707 486)" fill="#fff"/><path d="M27.292,6.748l-6.5,6.526-6.5-6.526,2.4,8.89L7.8,18l8.9,2.362-2.4,8.89,6.5-6.526,6.5,6.526-2.4-8.89L33.789,18l-8.9-2.362,2.4-8.89M10.4,0l10.4,10.44L31.19,0,27.343,14.22,41.586,18,27.343,21.78,31.19,36l-10.4-10.44L10.4,36l3.847-14.22L0,18l14.243-3.78Z" transform="translate(220.707 486)" fill="#70f"/><path d="M31.19,0,27.343,14.22,41.586,18,27.343,21.78,31.19,36l-10.4-10.44L10.4,36l3.847-14.22L0,18l14.243-3.78L10.4,0l10.4,10.44Z" transform="translate(181.207 348)" fill="#fff"/><path d="M27.292,6.748l-6.5,6.526-6.5-6.526,2.4,8.89L7.8,18l8.9,2.362-2.4,8.89,6.5-6.526,6.5,6.526-2.4-8.89L33.789,18l-8.9-2.362,2.4-8.89M10.4,0l10.4,10.44L31.19,0,27.343,14.22,41.586,18,27.343,21.78,31.19,36l-10.4-10.44L10.4,36l3.847-14.22L0,18l14.243-3.78Z" transform="translate(181.207 348)" fill="#70f"/><path d="M31.19,0,27.343,14.22,41.586,18,27.343,21.78,31.19,36l-10.4-10.44L10.4,36l3.847-14.22L0,18l14.243-3.78L10.4,0l10.4,10.44Z" transform="translate(193.207 587)" fill="#fff"/><path d="M27.292,6.748l-6.5,6.526-6.5-6.526,2.4,8.89L7.8,18l8.9,2.362-2.4,8.89,6.5-6.526,6.5,6.526-2.4-8.89L33.789,18l-8.9-2.362,2.4-8.89M10.4,0l10.4,10.44L31.19,0,27.343,14.22,41.586,18,27.343,21.78,31.19,36l-10.4-10.44L10.4,36l3.847-14.22L0,18l14.243-3.78Z" transform="translate(193.207 587)" fill="#70f"/><path d="M31.19,0,27.343,14.22,41.586,18,27.343,21.78,31.19,36l-10.4-10.44L10.4,36l3.847-14.22L0,18l14.243-3.78L10.4,0l10.4,10.44Z" transform="translate(399.5 409)" fill="#fff"/><path d="M27.292,6.748l-6.5,6.526-6.5-6.526,2.4,8.89L7.8,18l8.9,2.362-2.4,8.89,6.5-6.526,6.5,6.526-2.4-8.89L33.789,18l-8.9-2.362,2.4-8.89M10.4,0l10.4,10.44L31.19,0,27.343,14.22,41.586,18,27.343,21.78,31.19,36l-10.4-10.44L10.4,36l3.847-14.22L0,18l14.243-3.78Z" transform="translate(399.5 409)" fill="#70f"/><circle cx="20" cy="20" r="20" transform="translate(1048 1015)" fill="#fd0"/><path d="M20,3A17,17,0,0,0,7.979,32.021,17,17,0,0,0,32.021,7.979,16.889,16.889,0,0,0,20,3m0-3A20,20,0,1,1,0,20,20,20,0,0,1,20,0Z" transform="translate(1048 1015)" fill="#fff7e5"/><circle cx="20" cy="20" r="20" transform="translate(309 1257)" fill="#16c7ff"/><path d="M20,3A17,17,0,0,0,7.979,32.021,17,17,0,0,0,32.021,7.979,16.889,16.889,0,0,0,20,3m0-3A20,20,0,1,1,0,20,20,20,0,0,1,20,0Z" transform="translate(309 1257)" fill="#e5fffd"/><circle cx="20" cy="20" r="20" transform="translate(1778 139)" fill="#ab00ff"/><path d="M20,3A17,17,0,0,0,7.979,32.021,17,17,0,0,0,32.021,7.979,16.889,16.889,0,0,0,20,3m0-3A20,20,0,1,1,0,20,20,20,0,0,1,20,0Z" transform="translate(1778 139)" fill="#e8e5ff"/><circle cx="20" cy="20" r="20" transform="translate(1588 393)" fill="#00ffd4"/><path d="M20,3A17,17,0,0,0,7.979,32.021,17,17,0,0,0,32.021,7.979,16.889,16.889,0,0,0,20,3m0-3A20,20,0,1,1,0,20,20,20,0,0,1,20,0Z" transform="translate(1588 393)" fill="#e5fffb"/><circle cx="20" cy="20" r="20" transform="translate(1340 694)" fill="#ff00b2"/><path d="M20,3A17,17,0,0,0,7.979,32.021,17,17,0,0,0,32.021,7.979,16.889,16.889,0,0,0,20,3m0-3A20,20,0,1,1,0,20,20,20,0,0,1,20,0Z" transform="translate(1340 694)" fill="#ffe5f5"/><circle cx="20" cy="20" r="20" transform="translate(649 1108)" fill="#ff2300"/><path d="M20,3A17,17,0,0,0,7.979,32.021,17,17,0,0,0,32.021,7.979,16.889,16.889,0,0,0,20,3m0-3A20,20,0,1,1,0,20,20,20,0,0,1,20,0Z" transform="translate(649 1108)" fill="#ffefe5"/></g></svg>