<svg xmlns="http://www.w3.org/2000/svg" width="1899.76" height="3192.324" viewBox="0 0 1899.76 3192.324"><g transform="translate(302.376 137.957)"><path d="M-1047.752-1745.074s240.271,322.555,449.488,385.382,363.169-60.528,531.6,0S-.877-1152.23,133.338-1057.928s604.405,261.85,619.318,435.1S40.343-388.39-152.207-327.423-576.529-195.569-447.773,203.533c49.185,152.457,184.2,354.408,330.431,541.909,47.264,60.6,268.812,17.212,315.565,72.23C235.565,861.613-71.351,921.5-47.786,966.339c27.345,52.029,193.808-13.173,246.009,30.087,35.083,29.074-87.106,44.619-63.715,79.643,21.254,31.824,51.271-20.169,86.723,10.619,20.778,18.045-20.027,34.579,0,60.175,45.707,58.418,367.921,235.141,364.59,228.311" transform="translate(838 1611)" fill="none" stroke="#90f" stroke-width="13"/><path d="M752.882-1745.074s-240.271,322.555-449.488,385.382-363.169-60.528-531.6,0-65.792,207.463-200.006,301.764-604.405,261.85-619.318,435.1,712.313,234.437,904.863,295.4S281.659-195.569,152.9,203.533C103.717,355.99-31.3,557.941-177.529,745.442c-47.264,60.6-268.811,17.212-315.565,72.23C-530.435,861.613-223.52,921.5-247.085,966.339c-27.345,52.029-193.808-13.173-246.009,30.087-35.083,29.074,87.106,44.619,63.715,79.643-21.254,31.824-51.271-20.169-86.723,10.619-20.778,18.045,20.027,34.579,0,60.175-45.707,58.418-367.921,235.141-364.59,228.311" transform="translate(813 1646)" fill="none" stroke="#ff0060" stroke-width="4"/><path d="M-1047.752-1745.074s240.271,322.555,449.488,385.382,363.169-60.528,531.6,0S-.877-1152.23,133.338-1057.928s604.405,261.85,619.318,435.1S40.343-388.39-152.207-327.423-576.529-195.569-447.773,203.533c49.185,152.457,184.2,354.408,330.431,541.909,47.264,60.6,268.812,17.212,315.565,72.23C235.565,861.613-71.351,921.5-47.786,966.339c27.345,52.029,193.808-13.173,246.009,30.087,35.083,29.074-87.106,44.619-63.715,79.643,21.254,31.824,51.271-20.169,86.723,10.619,20.778,18.045-20.027,34.579,0,60.175,45.707,58.418,367.921,235.141,364.59,228.311" transform="translate(755 1667)" fill="none" stroke="#f6f6f6" stroke-width="24"/><path d="M-1047.752-1745.074s240.271,322.555,449.488,385.382,363.169-60.528,531.6,0S-.877-1152.23,133.338-1057.928s604.405,261.85,619.318,435.1S40.343-388.39-152.207-327.423-576.529-195.569-447.773,203.533c49.185,152.457,184.2,354.408,330.431,541.909,47.264,60.6,268.812,17.212,315.565,72.23C235.565,861.613-71.351,921.5-47.786,966.339c27.345,52.029,193.808-13.173,246.009,30.087,35.083,29.074-87.106,44.619-63.715,79.643,21.254,31.824,51.271-20.169,86.723,10.619,20.778,18.045-20.027,34.579,0,60.175,45.707,58.418,367.921,235.141,364.59,228.311" transform="translate(838 1611)" fill="none" stroke="#fff" stroke-width="3"/></g></svg>