<svg xmlns="http://www.w3.org/2000/svg" width="164.241" height="142.478" viewBox="0 0 164.241 142.478"><g transform="translate(-178.589 -274.61)"><path d="M883.119,1076.545c13.355,0,13.185,16.244,25.335,16.244" transform="translate(-1170.079 37.003) rotate(-40)" fill="none" stroke="#8000ff" stroke-linecap="round" stroke-width="3"/><path d="M855.034,1092.789c14.405,0,14.73-16.244,28.085-16.244s13.185,16.244,25.335,16.244,11.763-16.244,23.267-16.244" transform="translate(-1156.58 53.09) rotate(-40)" fill="none" stroke="#8000ff" stroke-linecap="round" stroke-width="3"/><path d="M824.642,1078.812s7.7-3.494,15.3,0,7.4,13.977,15.095,13.977" transform="translate(-1143.082 69.177) rotate(-40)" fill="none" stroke="#8000ff" stroke-linecap="round" stroke-width="3"/><path d="M824.642,1078.812s7.7-3.494,15.3,0,7.4,13.977,15.095,13.977c14.405,0,14.73-16.244,28.085-16.244s13.185,16.244,25.335,16.244,11.763-16.244,23.267-16.244,12.151,16.244,22.75,16.244,5.688-10.607,29.989-16.244" transform="translate(-1129.583 85.264) rotate(-40)" fill="none" stroke="#8000ff" stroke-linecap="round" stroke-width="3"/><path d="M908.454,1092.789c12.151,0,11.763-16.244,23.267-16.244s12.151,16.244,22.75,16.244,5.688-10.607,29.989-16.244" transform="translate(-1116.085 101.351) rotate(-40)" fill="none" stroke="#8000ff" stroke-linecap="round" stroke-width="3"/><path d="M839.939,1078.812c7.6,3.494,7.4,13.977,15.095,13.977,14.405,0,14.73-16.244,28.085-16.244s13.185,16.244,25.335,16.244,11.763-16.244,23.267-16.244,12.151,16.244,22.75,16.244" transform="translate(-1102.586 117.438) rotate(-40)" fill="none" stroke="#8000ff" stroke-linecap="round" stroke-width="3"/></g></svg>